<svg width="84" height="83" viewBox="0 0 84 83" fill="none" xmlns="http://www.w3.org/2000/svg">
<path d="M72.7424 45.668C71.8257 45.668 70.8674 45.3763 69.9507 45.168C68.0944 44.7589 66.2701 44.2158 64.4924 43.543C62.5594 42.8398 60.4346 42.8763 58.527 43.6455C56.6193 44.4147 55.0635 45.8623 54.159 47.7097L53.2424 49.5847C49.184 47.3271 45.4548 44.5231 42.159 41.2513C38.8872 37.9556 36.0833 34.2263 33.8257 30.168L35.5757 29.0013C37.4231 28.0968 38.8706 26.541 39.6398 24.6334C40.4091 22.7257 40.4456 20.601 39.7424 18.668C39.0808 16.8864 38.5379 15.063 38.1174 13.2097C37.909 12.293 37.7424 11.3347 37.6174 10.3763C37.1114 7.44141 35.5741 4.78358 33.2825 2.88149C30.9908 0.979392 28.0953 -0.0419743 25.1174 0.0013221H12.6174C10.8217 -0.0155385 9.0434 0.354711 7.40365 1.08687C5.7639 1.81902 4.30116 2.89589 3.11499 4.24416C1.92882 5.59244 1.04709 7.18046 0.529813 8.90013C0.0125362 10.6198 -0.128139 12.4307 0.117363 14.2097C2.33711 31.6654 10.3091 47.8841 22.7742 60.304C35.2393 72.7238 51.487 80.6368 68.9507 82.793H70.534C73.6066 82.7975 76.5732 81.6702 78.8674 79.6263C80.1855 78.4473 81.2385 77.0021 81.9568 75.386C82.6751 73.7699 83.0422 72.0198 83.034 70.2513V57.7513C82.983 54.8571 81.929 52.0703 80.0521 49.8666C78.1752 47.6629 75.5916 46.1789 72.7424 45.668ZM74.8257 70.668C74.825 71.2596 74.6982 71.8443 74.454 72.3831C74.2097 72.9219 73.8535 73.4025 73.409 73.793C72.9448 74.1972 72.4006 74.4989 71.8118 74.6784C71.2231 74.8579 70.6031 74.9111 69.9924 74.8347C54.3878 72.8338 39.8933 65.695 28.7953 54.5442C17.6973 43.3934 10.6274 28.8652 8.7007 13.2513C8.63438 12.641 8.6925 12.0235 8.87154 11.4363C9.05058 10.849 9.34682 10.3042 9.74236 9.83466C10.1328 9.3902 10.6135 9.03399 11.1523 8.78973C11.6911 8.54546 12.2758 8.41874 12.8674 8.41799H25.3674C26.3363 8.39643 27.2825 8.71332 28.043 9.31412C28.8035 9.91491 29.3307 10.762 29.534 11.7097C29.7007 12.8485 29.909 13.9735 30.159 15.0847C30.6404 17.2811 31.2809 19.4396 32.0757 21.543L26.2424 24.2513C25.7436 24.4802 25.295 24.8053 24.9222 25.208C24.5494 25.6107 24.2599 26.083 24.0702 26.598C23.8805 27.1129 23.7943 27.6602 23.8167 28.2085C23.8391 28.7568 23.9696 29.2953 24.2007 29.793C30.1974 42.6378 40.5225 52.963 53.3674 58.9597C54.3818 59.3764 55.5196 59.3764 56.534 58.9597C57.0537 58.7738 57.5312 58.4865 57.9389 58.1146C58.3466 57.7427 58.6764 57.2934 58.909 56.793L61.4924 50.9597C63.6464 51.73 65.8448 52.37 68.0757 52.8763C69.1868 53.1263 70.3118 53.3347 71.4507 53.5013C72.3983 53.7046 73.2454 54.2319 73.8462 54.9924C74.447 55.7529 74.7639 56.699 74.7424 57.668L74.8257 70.668Z" fill="white"/>
</svg>
