<svg width="118" height="26" viewBox="0 0 118 26" fill="none" xmlns="http://www.w3.org/2000/svg">
<path d="M17.8 1.4749L11.575 19.0249H6.22502L2.44277e-05 1.4749H4.55002L8.90002 14.7249L13.275 1.4749H17.8ZM23.8617 12.0249C23.8617 10.5916 24.1284 9.33324 24.6617 8.2499C25.2117 7.16657 25.9534 6.33324 26.8867 5.7499C27.8201 5.16657 28.8617 4.8749 30.0117 4.8749C30.9951 4.8749 31.8534 5.0749 32.5867 5.4749C33.3367 5.8749 33.9117 6.3999 34.3117 7.0499V5.0749H38.5867V19.0249H34.3117V17.0499C33.8951 17.6999 33.3117 18.2249 32.5617 18.6249C31.8284 19.0249 30.9701 19.2249 29.9867 19.2249C28.8534 19.2249 27.8201 18.9332 26.8867 18.3499C25.9534 17.7499 25.2117 16.9082 24.6617 15.8249C24.1284 14.7249 23.8617 13.4582 23.8617 12.0249ZM34.3117 12.0499C34.3117 10.9832 34.0117 10.1416 33.4117 9.5249C32.8284 8.90824 32.1117 8.5999 31.2617 8.5999C30.4117 8.5999 29.6867 8.90824 29.0867 9.5249C28.5034 10.1249 28.2117 10.9582 28.2117 12.0249C28.2117 13.0916 28.5034 13.9416 29.0867 14.5749C29.6867 15.1916 30.4117 15.4999 31.2617 15.4999C32.1117 15.4999 32.8284 15.1916 33.4117 14.5749C34.0117 13.9582 34.3117 13.1166 34.3117 12.0499ZM51.0795 0.524902V19.0249H46.8045V0.524902H51.0795Z" fill="#002265"/>
<path d="M72.1776 11.6499C72.1776 12.0832 72.1526 12.5416 72.1026 13.0249H61.1526C61.2359 14.3749 61.6942 15.4332 62.5276 16.1999C63.3776 16.9499 64.4026 17.3249 65.6026 17.3249C66.5859 17.3249 67.4026 17.0999 68.0526 16.6499C68.7192 16.1832 69.1859 15.5666 69.4526 14.7999H71.9026C71.5359 16.1166 70.8026 17.1916 69.7026 18.0249C68.6026 18.8416 67.2359 19.2499 65.6026 19.2499C64.3026 19.2499 63.1359 18.9582 62.1026 18.3749C61.0859 17.7916 60.2859 16.9666 59.7026 15.8999C59.1192 14.8166 58.8276 13.5666 58.8276 12.1499C58.8276 10.7332 59.1109 9.49157 59.6776 8.4249C60.2442 7.35823 61.0359 6.54157 62.0526 5.9749C63.0859 5.39157 64.2692 5.0999 65.6026 5.0999C66.9026 5.0999 68.0526 5.38323 69.0526 5.9499C70.0526 6.51657 70.8192 7.2999 71.3526 8.2999C71.9026 9.28324 72.1776 10.3999 72.1776 11.6499ZM69.8276 11.1749C69.8276 10.3082 69.6359 9.56657 69.2526 8.9499C68.8692 8.31657 68.3442 7.84157 67.6776 7.5249C67.0276 7.19157 66.3026 7.0249 65.5026 7.0249C64.3526 7.0249 63.3692 7.39157 62.5526 8.1249C61.7526 8.85824 61.2942 9.8749 61.1776 11.1749H69.8276ZM82.5805 7.5499C82.9805 6.76657 83.5472 6.15823 84.2805 5.7249C85.0305 5.29157 85.9388 5.0749 87.0055 5.0749V7.4249H86.4055C83.8555 7.4249 82.5805 8.80824 82.5805 11.5749V19.0249H80.3055V5.3249H82.5805V7.5499ZM95.9317 3.0999C95.4983 3.0999 95.1317 2.9499 94.8317 2.6499C94.5317 2.3499 94.3817 1.98323 94.3817 1.5499C94.3817 1.11657 94.5317 0.749902 94.8317 0.449902C95.1317 0.149901 95.4983 -9.85861e-05 95.9317 -9.85861e-05C96.3483 -9.85861e-05 96.6983 0.149901 96.9817 0.449902C97.2817 0.749902 97.4317 1.11657 97.4317 1.5499C97.4317 1.98323 97.2817 2.3499 96.9817 2.6499C96.6983 2.9499 96.3483 3.0999 95.9317 3.0999ZM97.0317 5.3249V19.0249H94.7567V5.3249H97.0317ZM117.834 5.3249L109.584 25.4749H107.234L109.934 18.8749L104.409 5.3249H106.934L111.234 16.4249L115.484 5.3249H117.834Z" fill="#14279B"/>
</svg>
