<svg width="819" height="168" viewBox="0 0 819 168" fill="none" xmlns="http://www.w3.org/2000/svg">
<path d="M0 167.6L27.3 146.65C54.6 125.7 109.2 83.8 163.8 83.8C218.4 83.8 273 125.7 327.6 125.7C382.2 125.7 436.8 83.8 491.4 76.8603C546 69.3968 600.6 98.2031 655.2 90.7396C709.8 83.7999 764.4 41.9 791.7 20.95L819 0V167.6H791.7C764.4 167.6 709.8 167.6 655.2 167.6C600.6 167.6 546 167.6 491.4 167.6C436.8 167.6 382.2 167.6 327.6 167.6C273 167.6 218.4 167.6 163.8 167.6C109.2 167.6 54.6 167.6 27.3 167.6H0Z" fill="#4581F6"/>
</svg>
