<svg width="84" height="84" viewBox="0 0 84 84" fill="none" xmlns="http://www.w3.org/2000/svg">
<path d="M63.9167 14.4167C62.9278 14.4167 61.9611 14.7099 61.1388 15.2593C60.3166 15.8087 59.6757 16.5896 59.2973 17.5032C58.9188 18.4169 58.8198 19.4222 59.0127 20.3921C59.2057 21.362 59.6819 22.2529 60.3811 22.9522C61.0804 23.6515 61.9713 24.1277 62.9412 24.3206C63.9111 24.5135 64.9165 24.4145 65.8301 24.0361C66.7437 23.6576 67.5246 23.0168 68.074 22.1945C68.6234 21.3723 68.9167 20.4056 68.9167 19.4167C68.9167 18.0906 68.3899 16.8188 67.4522 15.8811C66.5145 14.9435 65.2427 14.4167 63.9167 14.4167ZM83.0833 24.5C83.0023 21.0429 82.3548 17.6225 81.1667 14.375C80.1072 11.5964 78.4583 9.08033 76.3333 7C74.2701 4.86427 71.7482 3.22574 68.9583 2.20833C65.7194 0.984003 62.2952 0.321708 58.8333 0.25C54.4167 -2.32831e-07 53 0 41.6667 0C30.3333 0 28.9167 -2.32831e-07 24.5 0.25C21.0381 0.321708 17.6139 0.984003 14.375 2.20833C11.5903 3.23604 9.07056 4.87317 7 7C4.86427 9.06324 3.22574 11.5852 2.20833 14.375C0.984003 17.6139 0.321708 21.0381 0.25 24.5C-2.32831e-07 28.9167 0 30.3333 0 41.6667C0 53 -2.32831e-07 54.4167 0.25 58.8333C0.321708 62.2952 0.984003 65.7194 2.20833 68.9583C3.22574 71.7482 4.86427 74.2701 7 76.3333C9.07056 78.4602 11.5903 80.0973 14.375 81.125C17.6139 82.3493 21.0381 83.0116 24.5 83.0833C28.9167 83.3333 30.3333 83.3333 41.6667 83.3333C53 83.3333 54.4167 83.3333 58.8333 83.0833C62.2952 83.0116 65.7194 82.3493 68.9583 81.125C71.7482 80.1076 74.2701 78.4691 76.3333 76.3333C78.4677 74.2607 80.1181 71.7425 81.1667 68.9583C82.3548 65.7108 83.0023 62.2904 83.0833 58.8333C83.0833 54.4167 83.3333 53 83.3333 41.6667C83.3333 30.3333 83.3333 28.9167 83.0833 24.5ZM75.5833 58.3333C75.553 60.9782 75.074 63.5988 74.1667 66.0833C73.5014 67.8966 72.4328 69.5351 71.0417 70.875C69.6902 72.2521 68.0551 73.3185 66.25 74C63.7654 74.9073 61.1449 75.3863 58.5 75.4167C54.3333 75.625 52.7917 75.6667 41.8333 75.6667C30.875 75.6667 29.3333 75.6667 25.1667 75.4167C22.4204 75.4681 19.6858 75.0452 17.0833 74.1667C15.3574 73.4503 13.7973 72.3866 12.5 71.0417C11.117 69.7031 10.0618 68.0633 9.41667 66.25C8.3994 63.7298 7.83518 61.0498 7.75 58.3333C7.75 54.1667 7.5 52.625 7.5 41.6667C7.5 30.7083 7.5 29.1667 7.75 25C7.76868 22.2961 8.26229 19.6164 9.20833 17.0833C9.94186 15.3246 11.0678 13.7569 12.5 12.5C13.7659 11.0674 15.3304 9.92957 17.0833 9.16667C19.6231 8.25018 22.3 7.77116 25 7.75C29.1667 7.75 30.7083 7.5 41.6667 7.5C52.625 7.5 54.1667 7.5 58.3333 7.75C60.9782 7.78034 63.5988 8.25936 66.0833 9.16667C67.9768 9.86938 69.6762 11.0119 71.0417 12.5C72.4071 13.7799 73.474 15.3447 74.1667 17.0833C75.0927 19.6206 75.572 22.2991 75.5833 25C75.7917 29.1667 75.8333 30.7083 75.8333 41.6667C75.8333 52.625 75.7917 54.1667 75.5833 58.3333ZM41.6667 20.2917C37.4409 20.2999 33.3123 21.5605 29.8027 23.9142C26.2931 26.268 23.5599 29.6091 21.9485 33.5156C20.337 37.4221 19.9197 41.7186 20.7491 45.8622C21.5786 50.0058 23.6176 53.8106 26.6086 56.7957C29.5996 59.7809 33.4084 61.8126 37.5536 62.6339C41.6988 63.4553 45.9944 63.0296 49.8978 61.4106C53.8011 59.7915 57.137 57.0518 59.4839 53.5376C61.8307 50.0234 63.0833 45.8925 63.0833 41.6667C63.0888 38.8546 62.5383 36.0692 61.4635 33.4706C60.3886 30.8721 58.8107 28.5117 56.8203 26.5252C54.8299 24.5387 52.4664 22.9653 49.8658 21.8955C47.2652 20.8258 44.4787 20.2807 41.6667 20.2917ZM41.6667 55.5417C38.9225 55.5417 36.2399 54.7279 33.9581 53.2033C31.6764 51.6787 29.898 49.5117 28.8478 46.9764C27.7977 44.4411 27.5229 41.6513 28.0583 38.9598C28.5936 36.2683 29.9151 33.796 31.8556 31.8556C33.796 29.9151 36.2683 28.5936 38.9598 28.0583C41.6513 27.5229 44.4411 27.7977 46.9764 28.8478C49.5117 29.898 51.6787 31.6764 53.2033 33.9581C54.7279 36.2399 55.5417 38.9225 55.5417 41.6667C55.5417 43.4888 55.1828 45.293 54.4855 46.9764C53.7882 48.6598 52.7662 50.1894 51.4778 51.4778C50.1894 52.7662 48.6598 53.7882 46.9764 54.4855C45.293 55.1828 43.4888 55.5417 41.6667 55.5417Z" fill="white"/>
</svg>
