<svg width="84" height="84" viewBox="0 0 84 84" fill="none" xmlns="http://www.w3.org/2000/svg">
    <g id="instagram">
        <path d="M63.9167 14.4167C62.9278 14.4167 61.9611 14.7099 61.1388 15.2593C60.3166 15.8087 59.6757 16.5896 59.2973 17.5032C58.9188 18.4169 58.8198 19.4222 59.0127 20.3921C59.2057 21.362 59.6819 22.2529 60.3811 22.9522C61.0804 23.6515 61.9713 24.1277 62.9412 24.3206C63.9111 24.5135 64.9165 24.4145 65.8301 24.0361C66.7437 23.6576 67.5246 23.0168 68.074 22.1945C68.6234 21.3723 68.9167 20.4056 68.9167 19.4167C68.9167 18.0906 68.3899 16.8188 67.4522 15.8811C66.5145 14.9435 65.2427 14.4167 63.9167 14.4167ZM83.0833 24.5C83.0023 21.0429 82.3548 17.6225 81.1667 14.375C80.1072 11.5964 78.4583 9.08033 76.3333 7C74.2701 4.86427 71.7482 3.22574 68.9583 2.20833C65.7194 0.984003 62.2952 0.321708 58.8333 0.25C54.4167 -2.32831e-07 53 0 41.6667 0C30.3333 0 28.9167 -2.32831e-07 24.5 0.25C21.0381 0.321708 17.6139 0.984003 14.375 2.20833C11.5903 3.23604 9.07056 4.87317 7 7C4.86427 9.06324 3.22574 11.5852 2.20833 14.375C0.984003 17.6139 0.321708 21.0381 0.25 24.5C-2.32831e-07 28.9167 0 30.3333 0 41.6667C0 53 -2.32831e-07 54.4167 0.25 58.8333C0.321708 62.2952 0.984003 65.7194 2.20833 68.9583C3.22574 71.7482 4.86427 74.2701 7 76.3333C9.07056 78.4602 11.5903 80.0973 14.375 81.125C17.6139 82.3493 21.0381 83.0116 24.5 83.0833C28.9167 83.3333 30.3333 83.3333 41.6667 83.3333C53 83.3333 54.4167 83.3333 58.8333 83.0833C62.2952 83.0116 65.7194 82.3493 68.9583 81.125C71.7482 80.1076 74.2701 78.4691 76.3333 76.3333C78.4677 74.2607 80.1181 71.7425 81.1667 68.9583C82.3548 65.7108 83.0023 62.2904 83.0833 58.8333C83.0833 54.4167 83.3333 53 83.3333 41.6667C83.3333 30.3333 83.3333 28.9167 83.0833 24.5ZM75.5833 58.3333C75.553 60.9782 75.074 63.5988 74.1667 66.0833C73.5014 67.8966 72.4328 69.5351 71.0417 70.875C69.6902 72.2521 68.0551 73.3185 66.25 74C63.7654 74.9073 61.1449 75.3863 58.5 75.4167C54.3333 75.625 52.7917 75.6667 41.8333 75.6667C30.875 75.6667 29.3333 75.6667 25.1667 75.4167C22.4204 75.4681 19.6858 75.0452 17.0833 74.1667C15.3574 73.4503 13.7973 72.3866 12.5 71.0417C11.117 69.7031 10.0618 68.0633 9.41667 66.25C8.3994 63.7298 7.83518 61.0498 7.75 58.3333C7.75 54.1667 7.5 52.625 7.5 41.6667C7.5 30.7083 7.5 29.1667 7.75 25C7.76868 22.2961 8.26229 19.6164 9.20833 17.0833C9.94186 15.3246 11.0678 13.7569 12.5 12.5C13.7659 11.0674 15.3304 9.92957 17.0833 9.16667C19.6231 8.25018 22.3 7.77116 25 7.75C29.1667 7.75 30.7083 7.5 41.6667 7.5C52.625 7.5 54.1667 7.5 58.3333 7.75C60.9782 7.78034 63.5988 8.25936 66.0833 9.16667C67.9768 9.86938 69.6762 11.0119 71.0417 12.5C72.4071 13.7799 73.474 15.3447 74.1667 17.0833C75.0927 19.6206 75.572 22.2991 75.5833 25C75.7917 29.1667 75.8333 30.7083 75.8333 41.6667C75.8333 52.625 75.7917 54.1667 75.5833 58.3333ZM41.6667 20.2917C37.4409 20.2999 33.3123 21.5605 29.8027 23.9142C26.2931 26.268 23.5599 29.6091 21.9485 33.5156C20.337 37.4221 19.9197 41.7186 20.7491 45.8622C21.5786 50.0058 23.6176 53.8106 26.6086 56.7957C29.5996 59.7809 33.4084 61.8126 37.5536 62.6339C41.6988 63.4553 45.9944 63.0296 49.8978 61.4106C53.8011 59.7915 57.137 57.0518 59.4839 53.5376C61.8307 50.0234 63.0833 45.8925 63.0833 41.6667C63.0888 38.8546 62.5383 36.0692 61.4635 33.4706C60.3886 30.8721 58.8107 28.5117 56.8203 26.5252C54.8299 24.5387 52.4664 22.9653 49.8658 21.8955C47.2652 20.8258 44.4787 20.2807 41.6667 20.2917ZM41.6667 55.5417C38.9225 55.5417 36.2399 54.7279 33.9581 53.2033C31.6764 51.6787 29.898 49.5117 28.8478 46.9764C27.7977 44.4411 27.5229 41.6513 28.0583 38.9598C28.5936 36.2683 29.9151 33.796 31.8556 31.8556C33.796 29.9151 36.2683 28.5936 38.9598 28.0583C41.6513 27.5229 44.4411 27.7977 46.9764 28.8478C49.5117 29.898 51.6787 31.6764 53.2033 33.9581C54.7279 36.2399 55.5417 38.9225 55.5417 41.6667C55.5417 43.4888 55.1828 45.293 54.4855 46.9764C53.7882 48.6598 52.7662 50.1894 51.4778 51.4778C50.1894 52.7662 48.6598 53.7882 46.9764 54.4855C45.293 55.1828 43.4888 55.5417 41.6667 55.5417Z"
              fill="white"/>
    </g>

    <g id="github">
        <path d="M41.6668 0C31.7729 0.000410272 22.202 3.52131 14.6666 9.9327C7.13123 16.3441 2.12303 25.2276 0.538169 34.9937C-1.0467 44.7598 0.895188 54.7711 6.01636 63.2365C11.1375 71.7018 19.1038 78.0687 28.4898 81.1979C30.5731 81.5625 31.3544 80.3126 31.3544 79.2187C31.3544 78.2292 31.3022 74.9479 31.3022 71.4583C20.8334 73.3854 18.1251 68.9064 17.2918 66.5626C16.3671 64.2831 14.9013 62.2631 13.0209 60.6771C11.5626 59.8958 9.47928 57.9688 12.9688 57.9168C14.3013 58.0613 15.5792 58.525 16.6944 59.2684C17.8096 60.0118 18.7291 61.0131 19.3751 62.1875C19.945 63.2112 20.7113 64.1124 21.6301 64.8395C22.5489 65.5666 23.6021 66.1053 24.7294 66.4246C25.8567 66.7439 27.036 66.8377 28.1996 66.7004C29.3632 66.5632 30.4883 66.1978 31.5104 65.625C31.6908 63.5067 32.6349 61.5262 34.1668 60.0522C24.896 59.0105 15.2084 55.4166 15.2084 39.4793C15.1499 35.3382 16.678 31.3317 19.4793 28.2814C18.2055 24.6823 18.3545 20.7326 19.8959 17.2397C19.8959 17.2397 23.3854 16.1459 31.3543 21.5105C38.1721 19.6354 45.3698 19.6354 52.1876 21.5105C60.1563 16.0939 63.646 17.2397 63.646 17.2397C65.1876 20.7325 65.3367 24.6823 64.0626 28.2814C66.8724 31.3265 68.4018 35.3365 68.3335 39.4793C68.3335 55.4687 58.5938 59.0105 49.323 60.0522C50.3174 61.0601 51.0832 62.2701 51.5685 63.6002C52.0538 64.9302 52.2472 66.3491 52.1355 67.7605C52.1355 73.3335 52.0834 77.8125 52.0834 79.2189C52.0834 80.3127 52.8647 81.6147 54.948 81.198C64.3174 78.0433 72.2608 71.6615 77.3602 63.1919C82.4595 54.7222 84.383 44.716 82.7871 34.9593C81.1913 25.2027 76.18 16.3307 68.6479 9.92713C61.1158 3.52354 51.5531 0.00514545 41.6668 0Z"
              fill="white"/>
    </g>

    <g id="email">
        <path d="M12.5 16.6683H4.16667C3.0616 16.6683 2.00179 17.1073 1.22039 17.8887C0.438987 18.6701 0 19.7299 0 20.8349C0 21.94 0.438987 22.9998 1.22039 23.7812C2.00179 24.5626 3.0616 25.0016 4.16667 25.0016H12.5C13.6051 25.0016 14.6649 24.5626 15.4463 23.7812C16.2277 22.9998 16.6667 21.94 16.6667 20.8349C16.6667 19.7299 16.2277 18.6701 15.4463 17.8887C14.6649 17.1073 13.6051 16.6683 12.5 16.6683ZM82.4167 4.83494V4.58494C81.2229 3.12572 79.7144 1.95546 78.0043 1.16174C76.2942 0.368016 74.4268 -0.0285918 72.5417 0.00160349H39.5C36.4383 -0.0258961 33.4731 1.07125 31.1667 3.08494C29.0125 4.98299 27.5962 7.57953 27.1667 10.4183L23.5 31.2516C23.1847 33.0507 23.2675 34.8971 23.7426 36.6608C24.2177 38.4245 25.0736 40.0626 26.25 41.4599C27.4202 42.8526 28.8803 43.973 30.5284 44.7431C32.1764 45.5131 33.9726 45.9142 35.7917 45.9183H68.875C71.8469 45.9632 74.7375 44.9477 77.0283 43.054C79.3191 41.1602 80.8602 38.5122 81.375 35.5849L85.0417 14.7516C85.3304 13.007 85.2458 11.221 84.7933 9.51159C84.3408 7.80215 83.5307 6.20817 82.4167 4.83494ZM71 8.33494L56.8333 19.8349C55.9957 20.51 54.9295 20.8349 53.8577 20.7417C52.786 20.6486 51.7918 20.1444 51.0833 19.3349L41.375 8.33494H71ZM73 34.0433C72.8313 35.0216 72.3189 35.9075 71.555 36.5415C70.7911 37.1756 69.826 37.516 68.8333 37.5016H35.7917C35.1866 37.4965 34.5899 37.3597 34.043 37.1007C33.4961 36.8416 33.0122 36.4666 32.625 36.0016C32.2368 35.5391 31.9537 34.9977 31.7954 34.4149C31.6371 33.8322 31.6074 33.222 31.7083 32.6266L35.0417 13.7516L44.8333 24.8349C46.9646 27.2573 49.95 28.7617 53.165 29.0335C56.38 29.3053 59.5756 28.3235 62.0833 26.2933L76.4167 14.5849L73 34.0433ZM16.6667 0.00160349H4.16667C3.0616 0.00160349 2.00179 0.440591 1.22039 1.22199C0.438987 2.00339 0 3.0632 0 4.16827C0 5.27334 0.438987 6.33315 1.22039 7.11455C2.00179 7.89595 3.0616 8.33494 4.16667 8.33494H16.6667C17.7717 8.33494 18.8315 7.89595 19.6129 7.11455C20.3943 6.33315 20.8333 5.27334 20.8333 4.16827C20.8333 3.0632 20.3943 2.00339 19.6129 1.22199C18.8315 0.440591 17.7717 0.00160349 16.6667 0.00160349Z"
              fill="white"/>
    </g>

    <g id="call">
        <path d="M72.7424 45.668C71.8257 45.668 70.8674 45.3763 69.9507 45.168C68.0944 44.7589 66.2701 44.2158 64.4924 43.543C62.5594 42.8398 60.4346 42.8763 58.527 43.6455C56.6193 44.4147 55.0635 45.8623 54.159 47.7097L53.2424 49.5847C49.184 47.3271 45.4548 44.5231 42.159 41.2513C38.8872 37.9556 36.0833 34.2263 33.8257 30.168L35.5757 29.0013C37.4231 28.0968 38.8706 26.541 39.6398 24.6334C40.4091 22.7257 40.4456 20.601 39.7424 18.668C39.0808 16.8864 38.5379 15.063 38.1174 13.2097C37.909 12.293 37.7424 11.3347 37.6174 10.3763C37.1114 7.44141 35.5741 4.78358 33.2825 2.88149C30.9908 0.979392 28.0953 -0.0419743 25.1174 0.0013221H12.6174C10.8217 -0.0155385 9.0434 0.354711 7.40365 1.08687C5.7639 1.81902 4.30116 2.89589 3.11499 4.24416C1.92882 5.59244 1.04709 7.18046 0.529813 8.90013C0.0125362 10.6198 -0.128139 12.4307 0.117363 14.2097C2.33711 31.6654 10.3091 47.8841 22.7742 60.304C35.2393 72.7238 51.487 80.6368 68.9507 82.793H70.534C73.6066 82.7975 76.5732 81.6702 78.8674 79.6263C80.1855 78.4473 81.2385 77.0021 81.9568 75.386C82.6751 73.7699 83.0422 72.0198 83.034 70.2513V57.7513C82.983 54.8571 81.929 52.0703 80.0521 49.8666C78.1752 47.6629 75.5916 46.1789 72.7424 45.668ZM74.8257 70.668C74.825 71.2596 74.6982 71.8443 74.454 72.3831C74.2097 72.9219 73.8535 73.4025 73.409 73.793C72.9448 74.1972 72.4006 74.4989 71.8118 74.6784C71.2231 74.8579 70.6031 74.9111 69.9924 74.8347C54.3878 72.8338 39.8933 65.695 28.7953 54.5442C17.6973 43.3934 10.6274 28.8652 8.7007 13.2513C8.63438 12.641 8.6925 12.0235 8.87154 11.4363C9.05058 10.849 9.34682 10.3042 9.74236 9.83466C10.1328 9.3902 10.6135 9.03399 11.1523 8.78973C11.6911 8.54546 12.2758 8.41874 12.8674 8.41799H25.3674C26.3363 8.39643 27.2825 8.71332 28.043 9.31412C28.8035 9.91491 29.3307 10.762 29.534 11.7097C29.7007 12.8485 29.909 13.9735 30.159 15.0847C30.6404 17.2811 31.2809 19.4396 32.0757 21.543L26.2424 24.2513C25.7436 24.4802 25.295 24.8053 24.9222 25.208C24.5494 25.6107 24.2599 26.083 24.0702 26.598C23.8805 27.1129 23.7943 27.6602 23.8167 28.2085C23.8391 28.7568 23.9696 29.2953 24.2007 29.793C30.1974 42.6378 40.5225 52.963 53.3674 58.9597C54.3818 59.3764 55.5196 59.3764 56.534 58.9597C57.0537 58.7738 57.5312 58.4865 57.9389 58.1146C58.3466 57.7427 58.6764 57.2934 58.909 56.793L61.4924 50.9597C63.6464 51.73 65.8448 52.37 68.0757 52.8763C69.1868 53.1263 70.3118 53.3347 71.4507 53.5013C72.3983 53.7046 73.2454 54.2319 73.8462 54.9924C74.447 55.7529 74.7639 56.699 74.7424 57.668L74.8257 70.668Z"
              fill="white"/>
    </g>

    <g id="circleFon">
        <path fill-rule="evenodd" clip-rule="evenodd"
              d="M85.7852 0.0360206C101.496 -0.682995 115.271 9.49381 128.538 18.7928C142.692 28.7146 159.881 37.6645 164.714 55.3621C169.527 72.985 159.777 90.8775 152.791 107.595C146.594 122.426 138.989 136.503 126.876 145.912C114.885 155.225 100.348 161.615 85.7852 159.641C71.9985 157.773 63.7442 142.784 51.4371 135.689C35.8671 126.713 13.2706 129.457 4.4181 112.735C-4.44637 95.9896 1.49371 73.5911 9.39468 56.2707C16.6576 40.3489 32.0889 32.492 45.5382 22.5914C58.3669 13.1476 70.3688 0.741563 85.7852 0.0360206Z"
              fill="#608AF5"/>
    </g>

    <g id="emojione">
        <g clip-path="url(#clip0_12_1773)">
            <path d="M0.477844 38.8077L15.22 23.428L3.90441 7.0921C3.34659 7.80929 2.94816 8.76554 2.86847 9.88116L-0.000280764 35.939C-0.0799683 37.0546 0.0794067 38.0109 0.477844 38.8077Z"
                  fill="#6C63FF"/>
            <path d="M49.9637 4.38281L28.6074 24.225L45.4215 46.9359C46.3777 46.1391 47.0152 44.9437 47.1746 43.5094L50.9996 7.96875C51.159 6.53437 50.6809 5.17969 49.9637 4.38281Z"
                  fill="#6C63FF"/>
            <path d="M20.4794 31.3968L15.22 23.428L0.477844 38.8077C0.796594 39.5249 1.35441 40.003 1.99191 40.1624L42.4732 47.8124C43.5888 48.0515 44.6247 47.653 45.4216 46.9359L28.6075 24.2249L20.4794 31.3968Z"
                  fill="#6C63FF"/>
            <path d="M47.255 3.18758L5.65809 5.97664C5.02059 6.05633 4.38309 6.45477 3.90497 7.09227L15.3003 23.4282L20.5597 31.397L28.6878 24.2251L49.9643 4.38289C49.2472 3.58602 48.2909 3.10789 47.255 3.18758Z"
                  fill="#6C63FF"/>
            <path d="M28.0503 18.8062L28.5284 14.7421L14.5831 14.6624L12.2722 33.7077L25.819 36.8952L26.3768 32.8312L16.1768 30.839L16.7347 26.4562L26.9347 27.8905L27.4128 23.8265L17.1331 22.7905L17.6909 18.328L28.0503 18.8062Z"
                  fill="white"/>
        </g>
        <defs>
            <clipPath id="clip0_12_1773">
                <rect width="51" height="51" fill="white"/>
            </clipPath>
        </defs>
    </g>

    <g id="footer">
        <path d="M0 167.6L27.3 146.65C54.6 125.7 109.2 83.8 163.8 83.8C218.4 83.8 273 125.7 327.6 125.7C382.2 125.7 436.8 83.8 491.4 76.8603C546 69.3968 600.6 98.2031 655.2 90.7396C709.8 83.7999 764.4 41.9 791.7 20.95L819 0V167.6H791.7C764.4 167.6 709.8 167.6 655.2 167.6C600.6 167.6 546 167.6 491.4 167.6C436.8 167.6 382.2 167.6 327.6 167.6C273 167.6 218.4 167.6 163.8 167.6C109.2 167.6 54.6 167.6 27.3 167.6H0Z"
              fill="#4581F6"/>
    </g>

    <g id="logo">
        <path d="M17.8 1.4749L11.575 19.0249H6.22502L2.44277e-05 1.4749H4.55002L8.90002 14.7249L13.275 1.4749H17.8ZM23.8617 12.0249C23.8617 10.5916 24.1284 9.33324 24.6617 8.2499C25.2117 7.16657 25.9534 6.33324 26.8867 5.7499C27.8201 5.16657 28.8617 4.8749 30.0117 4.8749C30.9951 4.8749 31.8534 5.0749 32.5867 5.4749C33.3367 5.8749 33.9117 6.3999 34.3117 7.0499V5.0749H38.5867V19.0249H34.3117V17.0499C33.8951 17.6999 33.3117 18.2249 32.5617 18.6249C31.8284 19.0249 30.9701 19.2249 29.9867 19.2249C28.8534 19.2249 27.8201 18.9332 26.8867 18.3499C25.9534 17.7499 25.2117 16.9082 24.6617 15.8249C24.1284 14.7249 23.8617 13.4582 23.8617 12.0249ZM34.3117 12.0499C34.3117 10.9832 34.0117 10.1416 33.4117 9.5249C32.8284 8.90824 32.1117 8.5999 31.2617 8.5999C30.4117 8.5999 29.6867 8.90824 29.0867 9.5249C28.5034 10.1249 28.2117 10.9582 28.2117 12.0249C28.2117 13.0916 28.5034 13.9416 29.0867 14.5749C29.6867 15.1916 30.4117 15.4999 31.2617 15.4999C32.1117 15.4999 32.8284 15.1916 33.4117 14.5749C34.0117 13.9582 34.3117 13.1166 34.3117 12.0499ZM51.0795 0.524902V19.0249H46.8045V0.524902H51.0795Z"
              fill="#002265"/>
        <path d="M72.1776 11.6499C72.1776 12.0832 72.1526 12.5416 72.1026 13.0249H61.1526C61.2359 14.3749 61.6942 15.4332 62.5276 16.1999C63.3776 16.9499 64.4026 17.3249 65.6026 17.3249C66.5859 17.3249 67.4026 17.0999 68.0526 16.6499C68.7192 16.1832 69.1859 15.5666 69.4526 14.7999H71.9026C71.5359 16.1166 70.8026 17.1916 69.7026 18.0249C68.6026 18.8416 67.2359 19.2499 65.6026 19.2499C64.3026 19.2499 63.1359 18.9582 62.1026 18.3749C61.0859 17.7916 60.2859 16.9666 59.7026 15.8999C59.1192 14.8166 58.8276 13.5666 58.8276 12.1499C58.8276 10.7332 59.1109 9.49157 59.6776 8.4249C60.2442 7.35823 61.0359 6.54157 62.0526 5.9749C63.0859 5.39157 64.2692 5.0999 65.6026 5.0999C66.9026 5.0999 68.0526 5.38323 69.0526 5.9499C70.0526 6.51657 70.8192 7.2999 71.3526 8.2999C71.9026 9.28324 72.1776 10.3999 72.1776 11.6499ZM69.8276 11.1749C69.8276 10.3082 69.6359 9.56657 69.2526 8.9499C68.8692 8.31657 68.3442 7.84157 67.6776 7.5249C67.0276 7.19157 66.3026 7.0249 65.5026 7.0249C64.3526 7.0249 63.3692 7.39157 62.5526 8.1249C61.7526 8.85824 61.2942 9.8749 61.1776 11.1749H69.8276ZM82.5805 7.5499C82.9805 6.76657 83.5472 6.15823 84.2805 5.7249C85.0305 5.29157 85.9388 5.0749 87.0055 5.0749V7.4249H86.4055C83.8555 7.4249 82.5805 8.80824 82.5805 11.5749V19.0249H80.3055V5.3249H82.5805V7.5499ZM95.9317 3.0999C95.4983 3.0999 95.1317 2.9499 94.8317 2.6499C94.5317 2.3499 94.3817 1.98323 94.3817 1.5499C94.3817 1.11657 94.5317 0.749902 94.8317 0.449902C95.1317 0.149901 95.4983 -9.85861e-05 95.9317 -9.85861e-05C96.3483 -9.85861e-05 96.6983 0.149901 96.9817 0.449902C97.2817 0.749902 97.4317 1.11657 97.4317 1.5499C97.4317 1.98323 97.2817 2.3499 96.9817 2.6499C96.6983 2.9499 96.3483 3.0999 95.9317 3.0999ZM97.0317 5.3249V19.0249H94.7567V5.3249H97.0317ZM117.834 5.3249L109.584 25.4749H107.234L109.934 18.8749L104.409 5.3249H106.934L111.234 16.4249L115.484 5.3249H117.834Z"
              fill="#14279B"/>
    </g>
</svg>
