<svg width="86" height="46" viewBox="0 0 86 46" fill="none" xmlns="http://www.w3.org/2000/svg">
<path d="M12.5 16.6683H4.16667C3.0616 16.6683 2.00179 17.1073 1.22039 17.8887C0.438987 18.6701 0 19.7299 0 20.8349C0 21.94 0.438987 22.9998 1.22039 23.7812C2.00179 24.5626 3.0616 25.0016 4.16667 25.0016H12.5C13.6051 25.0016 14.6649 24.5626 15.4463 23.7812C16.2277 22.9998 16.6667 21.94 16.6667 20.8349C16.6667 19.7299 16.2277 18.6701 15.4463 17.8887C14.6649 17.1073 13.6051 16.6683 12.5 16.6683ZM82.4167 4.83494V4.58494C81.2229 3.12572 79.7144 1.95546 78.0043 1.16174C76.2942 0.368016 74.4268 -0.0285918 72.5417 0.00160349H39.5C36.4383 -0.0258961 33.4731 1.07125 31.1667 3.08494C29.0125 4.98299 27.5962 7.57953 27.1667 10.4183L23.5 31.2516C23.1847 33.0507 23.2675 34.8971 23.7426 36.6608C24.2177 38.4245 25.0736 40.0626 26.25 41.4599C27.4202 42.8526 28.8803 43.973 30.5284 44.7431C32.1764 45.5131 33.9726 45.9142 35.7917 45.9183H68.875C71.8469 45.9632 74.7375 44.9477 77.0283 43.054C79.3191 41.1602 80.8602 38.5122 81.375 35.5849L85.0417 14.7516C85.3304 13.007 85.2458 11.221 84.7933 9.51159C84.3408 7.80215 83.5307 6.20817 82.4167 4.83494ZM71 8.33494L56.8333 19.8349C55.9957 20.51 54.9295 20.8349 53.8577 20.7417C52.786 20.6486 51.7918 20.1444 51.0833 19.3349L41.375 8.33494H71ZM73 34.0433C72.8313 35.0216 72.3189 35.9075 71.555 36.5415C70.7911 37.1756 69.826 37.516 68.8333 37.5016H35.7917C35.1866 37.4965 34.5899 37.3597 34.043 37.1007C33.4961 36.8416 33.0122 36.4666 32.625 36.0016C32.2368 35.5391 31.9537 34.9977 31.7954 34.4149C31.6371 33.8322 31.6074 33.222 31.7083 32.6266L35.0417 13.7516L44.8333 24.8349C46.9646 27.2573 49.95 28.7617 53.165 29.0335C56.38 29.3053 59.5756 28.3235 62.0833 26.2933L76.4167 14.5849L73 34.0433ZM16.6667 0.00160349H4.16667C3.0616 0.00160349 2.00179 0.440591 1.22039 1.22199C0.438987 2.00339 0 3.0632 0 4.16827C0 5.27334 0.438987 6.33315 1.22039 7.11455C2.00179 7.89595 3.0616 8.33494 4.16667 8.33494H16.6667C17.7717 8.33494 18.8315 7.89595 19.6129 7.11455C20.3943 6.33315 20.8333 5.27334 20.8333 4.16827C20.8333 3.0632 20.3943 2.00339 19.6129 1.22199C18.8315 0.440591 17.7717 0.00160349 16.6667 0.00160349Z" fill="white"/>
</svg>
