<svg width="84" height="82" viewBox="0 0 84 82" fill="none" xmlns="http://www.w3.org/2000/svg">
<path d="M41.6668 0C31.7729 0.000410272 22.202 3.52131 14.6666 9.9327C7.13123 16.3441 2.12303 25.2276 0.538169 34.9937C-1.0467 44.7598 0.895188 54.7711 6.01636 63.2365C11.1375 71.7018 19.1038 78.0687 28.4898 81.1979C30.5731 81.5625 31.3544 80.3126 31.3544 79.2187C31.3544 78.2292 31.3022 74.9479 31.3022 71.4583C20.8334 73.3854 18.1251 68.9064 17.2918 66.5626C16.3671 64.2831 14.9013 62.2631 13.0209 60.6771C11.5626 59.8958 9.47928 57.9688 12.9688 57.9168C14.3013 58.0613 15.5792 58.525 16.6944 59.2684C17.8096 60.0118 18.7291 61.0131 19.3751 62.1875C19.945 63.2112 20.7113 64.1124 21.6301 64.8395C22.5489 65.5666 23.6021 66.1053 24.7294 66.4246C25.8567 66.7439 27.036 66.8377 28.1996 66.7004C29.3632 66.5632 30.4883 66.1978 31.5104 65.625C31.6908 63.5067 32.6349 61.5262 34.1668 60.0522C24.896 59.0105 15.2084 55.4166 15.2084 39.4793C15.1499 35.3382 16.678 31.3317 19.4793 28.2814C18.2055 24.6823 18.3545 20.7326 19.8959 17.2397C19.8959 17.2397 23.3854 16.1459 31.3543 21.5105C38.1721 19.6354 45.3698 19.6354 52.1876 21.5105C60.1563 16.0939 63.646 17.2397 63.646 17.2397C65.1876 20.7325 65.3367 24.6823 64.0626 28.2814C66.8724 31.3265 68.4018 35.3365 68.3335 39.4793C68.3335 55.4687 58.5938 59.0105 49.323 60.0522C50.3174 61.0601 51.0832 62.2701 51.5685 63.6002C52.0538 64.9302 52.2472 66.3491 52.1355 67.7605C52.1355 73.3335 52.0834 77.8125 52.0834 79.2189C52.0834 80.3127 52.8647 81.6147 54.948 81.198C64.3174 78.0433 72.2608 71.6615 77.3602 63.1919C82.4595 54.7222 84.383 44.716 82.7871 34.9593C81.1913 25.2027 76.18 16.3307 68.6479 9.92713C61.1158 3.52354 51.5531 0.00514545 41.6668 0Z" fill="white"/>
</svg>
